<svg width="655" height="191" viewBox="0 0 655 191" fill="none" xmlns="http://www.w3.org/2000/svg">
<path d="M198.772 42.8812L199.578 1.02899L280.128 3.37635L279.323 45.2286L198.772 42.8812Z" fill="#FF4B33" stroke="black" stroke-width="2"/>
<rect x="1.04737" y="49.4326" width="480.538" height="133.844" transform="rotate(-2.78277 1.04737 49.4326)" fill="#13D6C3" stroke="black" stroke-width="2"/>
<rect x="7.10926" y="43.97" width="480.538" height="133.844" transform="rotate(-2.78277 7.10926 43.97)" fill="white" stroke="black" stroke-width="2"/>
<path d="M57.0521 134.175C56.6192 134.194 56.2445 134.06 55.9278 133.77C55.6111 133.481 55.443 133.12 55.4236 132.687L55.2745 129.375C55.2219 128.206 55.7172 127.165 56.7605 126.25L66.5612 115.594C70.8622 111.886 73.8346 109.02 75.4785 106.994C77.1637 104.923 77.9635 102.935 77.8777 101.03C77.7861 98.9953 77.1513 97.419 75.9731 96.3008C74.8383 95.1807 73.167 94.6703 70.9592 94.7697C68.7947 94.8672 67.114 95.5935 65.9171 96.9487C64.7182 98.2606 64.0131 99.9406 63.8016 101.989C63.6951 102.514 63.4746 102.915 63.1399 103.19C62.8034 103.422 62.4186 103.548 61.9857 103.567L56.2066 103.827C55.817 103.845 55.4865 103.73 55.215 103.482C54.9436 103.233 54.8001 102.936 54.7845 102.59C54.7561 100.032 55.3416 97.6199 56.5409 95.3537C57.7383 93.0442 59.5405 91.1629 61.9476 89.7098C64.3527 88.2135 67.2219 87.3903 70.5552 87.2403C74.0184 87.0844 76.9677 87.5589 79.4032 88.6638C81.88 89.7235 83.7712 91.2651 85.0769 93.2884C86.3825 95.3117 87.0948 97.6437 87.2136 100.284C87.3442 103.185 86.6396 105.841 85.0998 108.252C83.6033 110.662 81.2489 113.284 78.0364 116.118L69.2366 125.884L87.7429 125.051C88.2191 125.029 88.5938 125.164 88.8672 125.455C89.1819 125.702 89.35 126.063 89.3714 126.539L89.579 131.149C89.5985 131.582 89.4635 131.957 89.1741 132.274C88.928 132.588 88.5669 132.756 88.0907 132.778L57.0521 134.175ZM99.3984 132.269C98.9655 132.288 98.5907 132.153 98.274 131.864C97.9574 131.575 97.7893 131.213 97.7698 130.781L95.867 88.5083C95.8456 88.0322 95.9579 87.6367 96.204 87.322C96.4934 87.0053 96.8762 86.8363 97.3523 86.8148L125.923 85.5287C126.4 85.5073 126.796 85.6413 127.113 85.9307C127.429 86.2201 127.598 86.6028 127.62 87.079L127.813 91.3647C127.834 91.8409 127.7 92.2373 127.411 92.554C127.119 92.8273 126.736 92.9747 126.26 92.9962L104.896 93.9578L105.414 105.451L125.348 104.554C125.825 104.532 126.221 104.666 126.538 104.956C126.852 105.202 127.02 105.563 127.042 106.039L127.223 110.065C127.245 110.541 127.111 110.938 126.821 111.254C126.53 111.528 126.146 111.675 125.67 111.697L105.735 112.594L106.27 124.477L128.153 123.492C128.629 123.47 129.025 123.604 129.342 123.894C129.659 124.183 129.828 124.566 129.849 125.042L130.042 129.328C130.064 129.804 129.93 130.2 129.64 130.517C129.349 130.79 128.965 130.938 128.489 130.959L99.3984 132.269ZM154.631 129.783C154.198 129.802 153.823 129.667 153.506 129.378C153.19 129.088 153.021 128.727 153.002 128.294L151.099 86.0221C151.078 85.546 151.19 85.1505 151.436 84.8358C151.726 84.5191 152.108 84.3501 152.584 84.3286L169.987 83.5453C175.182 83.3115 179.328 84.3611 182.426 86.6941C185.522 88.9839 187.176 92.488 187.389 97.2066C187.601 101.925 186.268 105.564 183.391 108.122C180.554 110.636 176.517 112.01 171.279 112.246L161.604 112.682L162.288 127.876C162.307 128.309 162.172 128.684 161.883 129.001C161.637 129.315 161.275 129.483 160.799 129.505L154.631 129.783ZM170.63 105.053C173.14 104.94 175.041 104.269 176.33 103.04C177.617 101.767 178.208 99.9622 178.103 97.6246C178.002 95.3735 177.274 93.6495 175.918 92.4526C174.561 91.2123 172.584 90.6507 169.987 90.7676L160.506 91.1943L161.149 105.48L170.63 105.053ZM197.434 127.856C197.001 127.875 196.626 127.74 196.31 127.451C195.993 127.162 195.825 126.8 195.805 126.368L193.902 84.0954C193.881 83.6192 193.993 83.2238 194.239 82.9091C194.529 82.5924 194.912 82.4233 195.388 82.4019L212.206 81.6449C217.487 81.4071 221.677 82.4548 224.775 84.7878C227.916 87.1189 229.589 90.5572 229.794 95.1026C229.936 98.2627 229.277 100.96 227.816 103.195C226.396 105.384 224.344 107.016 221.66 108.091L231.885 124.223C232.027 124.477 232.103 124.712 232.112 124.928C232.13 125.318 231.993 125.65 231.702 125.923C231.454 126.194 231.156 126.338 230.81 126.353L224.901 126.619C224.208 126.651 223.66 126.523 223.257 126.238C222.897 125.951 222.553 125.532 222.225 124.983L213.156 109.971L204.13 110.377L204.831 125.961C204.851 126.394 204.716 126.769 204.426 127.086C204.18 127.4 203.819 127.568 203.343 127.59L197.434 127.856ZM212.955 102.627C215.552 102.51 217.474 101.838 218.72 100.611C220.01 99.3819 220.605 97.6634 220.505 95.4556C220.406 93.2479 219.658 91.5681 218.261 90.4164C216.908 89.2628 214.933 88.7444 212.335 88.8613L203.18 89.2735L203.799 103.04L212.955 102.627ZM256.936 125.828C251.049 126.093 246.393 124.806 242.969 121.967C239.544 119.128 237.613 114.769 237.175 108.89C237.075 107.636 236.97 105.797 236.861 103.373C236.75 100.906 236.688 99.0432 236.675 97.7859C236.589 92.0206 238.165 87.5251 241.403 84.2996C244.641 81.074 249.118 79.3327 254.832 79.0755C260.546 78.8182 265.161 80.1504 268.675 83.072C272.234 85.9916 274.229 90.3262 274.661 96.076C274.861 98.5828 274.988 100.442 275.043 101.654C275.095 102.823 275.135 104.665 275.161 107.18C275.21 113.077 273.656 117.593 270.501 120.728C267.345 123.863 262.824 125.563 256.936 125.828ZM256.6 118.361C259.501 118.23 261.778 117.26 263.431 115.451C265.083 113.598 265.893 110.872 265.861 107.273C265.831 104.672 265.795 102.917 265.754 102.007C265.709 101.012 265.587 99.2606 265.387 96.7537C265.096 93.1665 264.045 90.5461 262.236 88.8924C260.424 87.1955 258.068 86.4123 255.168 86.5429C252.311 86.6715 250.056 87.6622 248.405 89.515C246.751 91.3245 245.94 94.0287 245.972 97.6276C245.985 98.885 246.043 100.639 246.144 102.89C246.243 105.098 246.344 106.85 246.446 108.147C246.737 111.734 247.767 114.377 249.535 116.076C251.345 117.73 253.7 118.491 256.6 118.361ZM299.294 123.921C296.09 124.066 293.122 123.657 290.39 122.696C287.7 121.732 285.506 120.204 283.807 118.112C282.108 116.02 281.146 113.439 280.921 110.369C280.903 109.979 281.018 109.649 281.266 109.377C281.513 109.063 281.83 108.897 282.22 108.879L288.389 108.601C289.341 108.558 290.016 109.092 290.413 110.202C290.817 112.439 291.78 114.066 293.3 115.082C294.864 116.096 296.815 116.55 299.152 116.445C301.88 116.322 303.918 115.342 305.266 113.502C306.658 111.661 307.283 109.161 307.141 106L306.2 85.0916L284.187 86.0825C283.754 86.102 283.379 85.967 283.063 85.6776C282.746 85.3883 282.578 85.0271 282.558 84.5942L282.354 80.0488C282.332 79.5726 282.467 79.1979 282.759 78.9245C283.048 78.6078 283.409 78.4397 283.842 78.4203L313.517 77.0845C313.993 77.063 314.39 77.197 314.706 77.4864C315.023 77.7758 315.192 78.1586 315.213 78.6348L316.438 105.842C316.6 109.435 316.003 112.564 314.648 115.227C313.293 117.891 311.283 119.977 308.619 121.485C305.995 122.947 302.887 123.76 299.294 123.921ZM328.507 121.956C328.074 121.975 327.7 121.84 327.383 121.551C327.066 121.262 326.898 120.9 326.879 120.468L324.976 78.1953C324.954 77.7191 325.067 77.3237 325.313 77.009C325.602 76.6923 325.985 76.5232 326.461 76.5018L355.032 75.2157C355.508 75.1943 355.905 75.3283 356.222 75.6177C356.538 75.907 356.707 76.2898 356.729 76.766L356.922 81.0517C356.943 81.5278 356.809 81.9243 356.52 82.2409C356.228 82.5143 355.845 82.6617 355.368 82.6832L334.005 83.6448L334.522 95.1382L354.457 94.2408C354.933 94.2194 355.33 94.3534 355.646 94.6428C355.961 94.8889 356.129 95.25 356.151 95.7262L356.332 99.7521C356.353 100.228 356.219 100.625 355.93 100.941C355.639 101.215 355.255 101.362 354.779 101.384L334.844 102.281L335.379 114.164L357.262 113.179C357.738 113.157 358.134 113.291 358.451 113.581C358.768 113.87 358.937 114.253 358.958 114.729L359.151 119.015C359.172 119.491 359.038 119.887 358.749 120.204C358.458 120.477 358.074 120.625 357.598 120.646L328.507 121.956ZM384.523 120.085C378.55 120.354 373.848 119.026 370.42 116.1C367.035 113.173 365.108 108.922 364.641 103.347C364.545 102.18 364.437 100.276 364.319 97.6358C364.198 94.9519 364.132 93.0029 364.12 91.7888C364.087 86.238 365.647 81.8518 368.798 78.6301C371.991 75.3632 376.532 73.5973 382.419 73.3323C386.272 73.1589 389.657 73.6788 392.574 74.8922C395.49 76.0623 397.779 77.7594 399.44 79.9836C401.1 82.1645 402.037 84.6816 402.253 87.5348L402.259 87.6646C402.274 88.011 402.136 88.3208 401.845 88.5942C401.595 88.8223 401.297 88.9442 400.95 88.9598L394.782 89.2374C394.262 89.2608 393.868 89.1701 393.598 88.9654C393.329 88.7606 393.094 88.3591 392.893 87.7609C392.078 85.0648 390.845 83.2117 389.195 82.2016C387.542 81.1481 385.374 80.6818 382.69 80.8026C376.456 81.0833 373.367 84.7142 373.421 91.6955C373.43 92.8663 373.489 94.6638 373.598 97.088C373.707 99.5122 373.812 101.351 373.912 102.604C374.485 109.562 377.889 112.901 384.122 112.62C386.806 112.5 388.924 111.84 390.475 110.643C392.069 109.443 393.131 107.487 393.659 104.774C393.762 104.162 393.938 103.742 394.188 103.514C394.481 103.283 394.888 103.157 395.407 103.133L401.576 102.856C401.966 102.838 402.296 102.953 402.567 103.201C402.882 103.448 403.027 103.766 403.001 104.158C403.043 107.019 402.336 109.632 400.881 111.996C399.424 114.317 397.297 116.213 394.501 117.684C391.702 119.111 388.376 119.912 384.523 120.085ZM422.909 117.706C422.476 117.726 422.101 117.591 421.785 117.302C421.468 117.012 421.3 116.651 421.28 116.218L419.664 80.3095L407.651 80.8502C407.218 80.8697 406.843 80.7348 406.527 80.4454C406.21 80.156 406.042 79.7949 406.023 79.362L405.806 74.5568C405.785 74.0807 405.897 73.6852 406.143 73.3705C406.433 73.0538 406.815 72.8848 407.292 72.8633L440.408 71.3726C440.884 71.3512 441.281 71.4852 441.597 71.7746C441.914 72.064 442.083 72.4467 442.105 72.9229L442.321 77.7281C442.34 78.161 442.205 78.5357 441.916 78.8524C441.627 79.1691 441.244 79.3381 440.768 79.3596L428.82 79.8974L430.436 115.806C430.456 116.239 430.321 116.614 430.031 116.93C429.742 117.247 429.359 117.416 428.883 117.438L422.909 117.706Z" fill="black"/>
</svg>
